<mxfile host="app.diagrams.net" agent="Mozilla/5.0 (Windows NT 10.0; Win64; x64) AppleWebKit/537.36 (KHTML, like Gecko) Chrome/138.0.0.0 Safari/537.36" version="27.1.6">
  <diagram name="Página-1" id="WJT-g0EqlWrifGh-EyUU">
    <mxGraphModel grid="1" page="1" gridSize="10" guides="1" tooltips="1" connect="1" arrows="1" fold="1" pageScale="1" pageWidth="827" pageHeight="1169" math="0" shadow="0">
      <root>
        <mxCell id="0" />
        <mxCell id="1" parent="0" />
        <mxCell id="efOWIAx61kz_VJFrvvQT-1" value="CU048 Estado de cuenta " style="swimlane;childLayout=stackLayout;resizeParent=1;resizeParentMax=0;startSize=20;horizontal=0;horizontalStack=1;" vertex="1" parent="1">
          <mxGeometry x="70" y="80" width="730" height="640" as="geometry">
            <mxRectangle x="200" y="80" width="40" height="50" as="alternateBounds" />
          </mxGeometry>
        </mxCell>
        <mxCell id="efOWIAx61kz_VJFrvvQT-2" style="edgeStyle=orthogonalEdgeStyle;rounded=0;orthogonalLoop=1;jettySize=auto;html=1;entryX=0.5;entryY=0;entryDx=0;entryDy=0;strokeColor=light-dark(#ff0000, #ededed);" edge="1" parent="efOWIAx61kz_VJFrvvQT-1" source="efOWIAx61kz_VJFrvvQT-10" target="efOWIAx61kz_VJFrvvQT-12">
          <mxGeometry relative="1" as="geometry">
            <Array as="points">
              <mxPoint x="600" y="108" />
            </Array>
            <mxPoint x="222.5" y="107.5" as="sourcePoint" />
          </mxGeometry>
        </mxCell>
        <mxCell id="efOWIAx61kz_VJFrvvQT-3" value="Administrador" style="swimlane;startSize=20;" vertex="1" parent="efOWIAx61kz_VJFrvvQT-1">
          <mxGeometry x="20" width="350" height="640" as="geometry" />
        </mxCell>
        <mxCell id="efOWIAx61kz_VJFrvvQT-4" value="" style="ellipse;html=1;shape=startState;fillColor=#000000;strokeColor=#ff0000;fillStyle=auto;" vertex="1" parent="efOWIAx61kz_VJFrvvQT-3">
          <mxGeometry x="20" y="25" width="30" height="30" as="geometry" />
        </mxCell>
        <mxCell id="efOWIAx61kz_VJFrvvQT-5" value="" style="edgeStyle=orthogonalEdgeStyle;html=1;verticalAlign=bottom;endArrow=open;endSize=8;strokeColor=#ff0000;rounded=0;entryX=0.5;entryY=0;entryDx=0;entryDy=0;" edge="1" parent="efOWIAx61kz_VJFrvvQT-3" source="efOWIAx61kz_VJFrvvQT-4">
          <mxGeometry relative="1" as="geometry">
            <mxPoint x="155" y="80" as="targetPoint" />
            <mxPoint x="340" y="320" as="sourcePoint" />
          </mxGeometry>
        </mxCell>
        <mxCell id="efOWIAx61kz_VJFrvvQT-6" value="Seleccionar estado" style="rounded=1;whiteSpace=wrap;html=1;arcSize=40;fontColor=#000000;fillColor=#ffffc0;strokeColor=#ff0000;" vertex="1" parent="efOWIAx61kz_VJFrvvQT-3">
          <mxGeometry x="110" y="270" width="120" height="40" as="geometry" />
        </mxCell>
        <mxCell id="efOWIAx61kz_VJFrvvQT-30" style="edgeStyle=orthogonalEdgeStyle;rounded=0;orthogonalLoop=1;jettySize=auto;html=1;fillColor=#f8cecc;strokeColor=#FF0000;" edge="1" parent="efOWIAx61kz_VJFrvvQT-3" source="efOWIAx61kz_VJFrvvQT-7" target="efOWIAx61kz_VJFrvvQT-29">
          <mxGeometry relative="1" as="geometry" />
        </mxCell>
        <mxCell id="efOWIAx61kz_VJFrvvQT-7" value="Pulsar el botón &quot;Cambiar&quot;" style="rounded=1;whiteSpace=wrap;html=1;arcSize=40;fontColor=#000000;fillColor=#ffffc0;strokeColor=#ff0000;" vertex="1" parent="efOWIAx61kz_VJFrvvQT-3">
          <mxGeometry x="110" y="430" width="120" height="40" as="geometry" />
        </mxCell>
        <mxCell id="efOWIAx61kz_VJFrvvQT-8" value="Pulsar el botón &quot;Editar estado de la cuenta &quot;" style="rounded=1;whiteSpace=wrap;html=1;arcSize=40;fontColor=#000000;fillColor=#ffffc0;strokeColor=light-dark(#ff0000, #ededed);" vertex="1" parent="efOWIAx61kz_VJFrvvQT-3">
          <mxGeometry x="80" y="200" width="120" height="50" as="geometry" />
        </mxCell>
        <mxCell id="efOWIAx61kz_VJFrvvQT-9" value="" style="edgeStyle=orthogonalEdgeStyle;html=1;verticalAlign=bottom;endArrow=open;endSize=8;strokeColor=#ff0000;rounded=0;entryX=0.5;entryY=0;entryDx=0;entryDy=0;exitX=0.5;exitY=1;exitDx=0;exitDy=0;" edge="1" parent="efOWIAx61kz_VJFrvvQT-3" source="efOWIAx61kz_VJFrvvQT-6" target="efOWIAx61kz_VJFrvvQT-7">
          <mxGeometry relative="1" as="geometry">
            <mxPoint x="550" y="330" as="targetPoint" />
            <Array as="points" />
          </mxGeometry>
        </mxCell>
        <mxCell id="efOWIAx61kz_VJFrvvQT-10" value="Pulsa el apartado &quot;Administrar cuenta&quot;" style="rounded=1;whiteSpace=wrap;html=1;arcSize=40;fontColor=#000000;fillColor=#ffffc0;strokeColor=#ff0000;" vertex="1" parent="efOWIAx61kz_VJFrvvQT-3">
          <mxGeometry x="80" y="80" width="120" height="50" as="geometry" />
        </mxCell>
        <mxCell id="efOWIAx61kz_VJFrvvQT-29" value="Pulsar el botón &quot;confirmar&quot;." style="rounded=1;whiteSpace=wrap;html=1;arcSize=40;fontColor=#000000;fillColor=#ffffc0;strokeColor=#ff0000;" vertex="1" parent="efOWIAx61kz_VJFrvvQT-3">
          <mxGeometry x="110" y="540" width="120" height="40" as="geometry" />
        </mxCell>
        <mxCell id="efOWIAx61kz_VJFrvvQT-24" style="edgeStyle=orthogonalEdgeStyle;rounded=0;orthogonalLoop=1;jettySize=auto;html=1;strokeColor=light-dark(#ff0000, #ededed);exitX=0;exitY=1;exitDx=0;exitDy=0;" edge="1" parent="efOWIAx61kz_VJFrvvQT-1" source="efOWIAx61kz_VJFrvvQT-13" target="efOWIAx61kz_VJFrvvQT-6">
          <mxGeometry relative="1" as="geometry">
            <mxPoint x="489.9599999999998" y="293.43000000000006" as="targetPoint" />
            <Array as="points">
              <mxPoint x="380" y="290" />
              <mxPoint x="380" y="290" />
            </Array>
          </mxGeometry>
        </mxCell>
        <mxCell id="efOWIAx61kz_VJFrvvQT-26" style="edgeStyle=orthogonalEdgeStyle;rounded=0;orthogonalLoop=1;jettySize=auto;html=1;entryX=0.5;entryY=0;entryDx=0;entryDy=0;strokeColor=light-dark(#ff0000, #ededed);exitX=1;exitY=0.75;exitDx=0;exitDy=0;" edge="1" parent="efOWIAx61kz_VJFrvvQT-1" source="efOWIAx61kz_VJFrvvQT-8" target="efOWIAx61kz_VJFrvvQT-13">
          <mxGeometry relative="1" as="geometry">
            <Array as="points">
              <mxPoint x="220" y="240" />
              <mxPoint x="555" y="240" />
            </Array>
          </mxGeometry>
        </mxCell>
        <mxCell id="efOWIAx61kz_VJFrvvQT-27" value="" style="edgeStyle=orthogonalEdgeStyle;html=1;verticalAlign=bottom;endArrow=open;endSize=8;strokeColor=#ff0000;rounded=0;exitX=1;exitY=0.75;exitDx=0;exitDy=0;entryX=0.417;entryY=0.377;entryDx=0;entryDy=0;entryPerimeter=0;" edge="1" parent="efOWIAx61kz_VJFrvvQT-1" source="efOWIAx61kz_VJFrvvQT-29" target="efOWIAx61kz_VJFrvvQT-21">
          <mxGeometry relative="1" as="geometry">
            <mxPoint x="190" y="570" as="targetPoint" />
            <Array as="points">
              <mxPoint x="330" y="570" />
              <mxPoint x="330" y="395" />
            </Array>
          </mxGeometry>
        </mxCell>
        <mxCell id="efOWIAx61kz_VJFrvvQT-11" value="Sistema" style="swimlane;startSize=20;" vertex="1" parent="efOWIAx61kz_VJFrvvQT-1">
          <mxGeometry x="370" width="360" height="640" as="geometry" />
        </mxCell>
        <mxCell id="efOWIAx61kz_VJFrvvQT-12" value="Mostrar apartado" style="rounded=1;whiteSpace=wrap;html=1;arcSize=40;fontColor=#000000;fillColor=#ffffc0;strokeColor=#ff0000;" vertex="1" parent="efOWIAx61kz_VJFrvvQT-11">
          <mxGeometry x="170" y="130" width="120" height="50" as="geometry" />
        </mxCell>
        <mxCell id="efOWIAx61kz_VJFrvvQT-13" value="Mostrar formulario edición de estado" style="rounded=1;whiteSpace=wrap;html=1;arcSize=40;fontColor=#000000;fillColor=#ffffc0;strokeColor=light-dark(#ff0000, #ededed);" vertex="1" parent="efOWIAx61kz_VJFrvvQT-11">
          <mxGeometry x="125" y="250" width="120" height="40" as="geometry" />
        </mxCell>
        <mxCell id="efOWIAx61kz_VJFrvvQT-14" value="Guarda los datos&amp;nbsp;" style="rounded=1;whiteSpace=wrap;html=1;arcSize=40;fontColor=#000000;fillColor=#ffffc0;strokeColor=#ff0000;" vertex="1" parent="efOWIAx61kz_VJFrvvQT-11">
          <mxGeometry x="70" y="330" width="120" height="40" as="geometry" />
        </mxCell>
        <mxCell id="efOWIAx61kz_VJFrvvQT-15" value="" style="edgeStyle=orthogonalEdgeStyle;html=1;verticalAlign=bottom;endArrow=open;endSize=8;strokeColor=#ff0000;rounded=0;entryX=0.5;entryY=0;entryDx=0;entryDy=0;" edge="1" parent="efOWIAx61kz_VJFrvvQT-11" source="efOWIAx61kz_VJFrvvQT-14" target="efOWIAx61kz_VJFrvvQT-20">
          <mxGeometry relative="1" as="geometry">
            <mxPoint x="250" y="580" as="targetPoint" />
          </mxGeometry>
        </mxCell>
        <mxCell id="efOWIAx61kz_VJFrvvQT-16" value="Estado de la cuenta editado" style="rounded=1;whiteSpace=wrap;html=1;arcSize=40;fontColor=#000000;fillColor=#ffffc0;strokeColor=#ff0000;" vertex="1" parent="efOWIAx61kz_VJFrvvQT-11">
          <mxGeometry x="70" y="420" width="120" height="40" as="geometry" />
        </mxCell>
        <mxCell id="efOWIAx61kz_VJFrvvQT-17" value="" style="edgeStyle=orthogonalEdgeStyle;html=1;verticalAlign=bottom;endArrow=open;endSize=8;strokeColor=#ff0000;rounded=0;entryX=0;entryY=0.5;entryDx=0;entryDy=0;" edge="1" parent="efOWIAx61kz_VJFrvvQT-11" source="efOWIAx61kz_VJFrvvQT-16" target="efOWIAx61kz_VJFrvvQT-20">
          <mxGeometry relative="1" as="geometry">
            <mxPoint x="250" y="660" as="targetPoint" />
            <Array as="points">
              <mxPoint x="120" y="510" />
            </Array>
          </mxGeometry>
        </mxCell>
        <mxCell id="efOWIAx61kz_VJFrvvQT-18" value="" style="ellipse;html=1;shape=endState;fillColor=#000000;strokeColor=#ff0000;" vertex="1" parent="efOWIAx61kz_VJFrvvQT-11">
          <mxGeometry x="245" y="590" width="30" height="30" as="geometry" />
        </mxCell>
        <mxCell id="efOWIAx61kz_VJFrvvQT-19" style="edgeStyle=orthogonalEdgeStyle;rounded=0;orthogonalLoop=1;jettySize=auto;html=1;entryX=0.5;entryY=0;entryDx=0;entryDy=0;strokeColor=#FF0000;" edge="1" parent="efOWIAx61kz_VJFrvvQT-11" source="efOWIAx61kz_VJFrvvQT-20" target="efOWIAx61kz_VJFrvvQT-18">
          <mxGeometry relative="1" as="geometry" />
        </mxCell>
        <mxCell id="efOWIAx61kz_VJFrvvQT-20" value="Mostrar mensaje de éxito" style="rounded=1;whiteSpace=wrap;html=1;arcSize=40;fontColor=#000000;fillColor=#ffffc0;strokeColor=#ff0000;" vertex="1" parent="efOWIAx61kz_VJFrvvQT-11">
          <mxGeometry x="200" y="485" width="120" height="40" as="geometry" />
        </mxCell>
        <mxCell id="efOWIAx61kz_VJFrvvQT-21" value="" style="shape=line;html=1;strokeWidth=6;strokeColor=#ff0000;rotation=-91;" vertex="1" parent="efOWIAx61kz_VJFrvvQT-11">
          <mxGeometry x="-40" y="370" width="120" height="30" as="geometry" />
        </mxCell>
        <mxCell id="efOWIAx61kz_VJFrvvQT-23" style="edgeStyle=orthogonalEdgeStyle;rounded=0;orthogonalLoop=1;jettySize=auto;html=1;entryX=0;entryY=0.5;entryDx=0;entryDy=0;exitX=0.483;exitY=0.499;exitDx=0;exitDy=0;exitPerimeter=0;strokeColor=light-dark(#FF0800,#D7817E);" edge="1" parent="efOWIAx61kz_VJFrvvQT-11" source="efOWIAx61kz_VJFrvvQT-21" target="efOWIAx61kz_VJFrvvQT-16">
          <mxGeometry relative="1" as="geometry">
            <Array as="points">
              <mxPoint x="40" y="387" />
              <mxPoint x="40" y="440" />
            </Array>
          </mxGeometry>
        </mxCell>
        <mxCell id="efOWIAx61kz_VJFrvvQT-28" style="edgeStyle=orthogonalEdgeStyle;rounded=0;orthogonalLoop=1;jettySize=auto;html=1;entryX=0;entryY=0.5;entryDx=0;entryDy=0;strokeColor=light-dark(#FF0800,#D7817E);" edge="1" parent="efOWIAx61kz_VJFrvvQT-11" target="efOWIAx61kz_VJFrvvQT-14">
          <mxGeometry relative="1" as="geometry">
            <Array as="points">
              <mxPoint x="40" y="380" />
              <mxPoint x="40" y="343" />
              <mxPoint x="70" y="343" />
            </Array>
            <mxPoint x="20" y="380" as="sourcePoint" />
            <mxPoint x="110" y="343" as="targetPoint" />
          </mxGeometry>
        </mxCell>
        <mxCell id="efOWIAx61kz_VJFrvvQT-25" style="edgeStyle=orthogonalEdgeStyle;rounded=0;orthogonalLoop=1;jettySize=auto;html=1;entryX=1;entryY=0.25;entryDx=0;entryDy=0;strokeColor=light-dark(#ff0000, #ededed);" edge="1" parent="efOWIAx61kz_VJFrvvQT-11" source="efOWIAx61kz_VJFrvvQT-12" target="efOWIAx61kz_VJFrvvQT-8">
          <mxGeometry relative="1" as="geometry">
            <Array as="points">
              <mxPoint x="240" y="212" />
            </Array>
          </mxGeometry>
        </mxCell>
      </root>
    </mxGraphModel>
  </diagram>
</mxfile>
